<svg xmlns="http://www.w3.org/2000/svg" fill="none" viewBox="0 0 48 48" height="48" width="48"><g id="arrow-up-circle-1--arrow-keyboard-circle-button-up"><path id="Ellipse 19" stroke="currentcolor" stroke-linecap="round" stroke-linejoin="round" d="M24 3a21 21 0 1 0 0 42 21 21 0 1 0 0 -42" stroke-width="3"></path><path id="Vector 134 (Stroke)" fill-rule="evenodd" stroke="currentcolor" stroke-linecap="round" stroke-linejoin="round" d="M23.646 23.854a0.5 0.5 0 0 1 0.707 0l6.499 6.498c0.97 0.97 2.486 1.169 3.538 0.29 0.839 -0.701 1.673 -1.537 2.275 -2.392 0.709 -1.008 0.377 -2.302 -0.447 -3.218 -2.941 -3.274 -7.328 -7.602 -10.21 -9.779 -1.219 -0.92 -2.798 -0.92 -4.016 0 -2.883 2.177 -7.269 6.505 -10.21 9.779 -0.824 0.916 -1.156 2.21 -0.448 3.218 0.602 0.855 1.437 1.69 2.275 2.391 1.052 0.88 2.57 0.68 3.539 -0.289l6.498 -6.498Z" clip-rule="evenodd" stroke-width="3"></path></g></svg>