<svg xmlns="http://www.w3.org/2000/svg" fill="none" viewBox="0 0 14 14" height="14" width="14"><g id="safe-vault--saving-combo-payment-safe-combination-finance"><path id="Vector" fill="#ffffff" d="M8.5 8a1.75 1.75 0 1 0 0 -3.5 1.75 1.75 0 0 0 0 3.5Z" stroke-width="1"></path><path id="Subtract" fill="#d7e0ff" fill-rule="evenodd" d="M1.5 0.5h11a1 1 0 0 1 1 1V11a1 1 0 0 1 -1 1h-11a1 1 0 0 1 -1 -1V1.5a1 1 0 0 1 1 -1Zm8.75 5.75a1.75 1.75 0 1 1 -3.5 0 1.75 1.75 0 0 1 3.5 0Z" clip-rule="evenodd" stroke-width="1"></path><path id="Vector_2" stroke="#4147d5" stroke-linecap="round" stroke-linejoin="round" d="M8.5 8a1.75 1.75 0 1 0 0 -3.5 1.75 1.75 0 0 0 0 3.5Z" stroke-width="1"></path><path id="Vector_3" stroke="#4147d5" stroke-linecap="round" stroke-linejoin="round" d="M12.5 0.5h-11a1 1 0 0 0 -1 1V11a1 1 0 0 0 1 1h11a1 1 0 0 0 1 -1V1.5a1 1 0 0 0 -1 -1Z" stroke-width="1"></path><path id="Vector_4" stroke="#4147d5" stroke-linecap="round" stroke-linejoin="round" d="M8.5 3.25V4.5" stroke-width="1"></path><path id="Vector_5" stroke="#4147d5" stroke-linecap="round" stroke-linejoin="round" d="M8.5 8v1.25" stroke-width="1"></path><path id="Vector_6" stroke="#4147d5" stroke-linecap="round" stroke-linejoin="round" d="M11.5 6.25h-1.25" stroke-width="1"></path><path id="Vector_7" stroke="#4147d5" stroke-linecap="round" stroke-linejoin="round" d="M6.75 6.25H5.5" stroke-width="1"></path><path id="Vector_8" stroke="#4147d5" stroke-linecap="round" stroke-linejoin="round" d="m10.62 4.13 -0.88 0.88" stroke-width="1"></path><path id="Vector_9" stroke="#4147d5" stroke-linecap="round" stroke-linejoin="round" d="m7.26 7.49 -0.88 0.88" stroke-width="1"></path><path id="Vector_10" stroke="#4147d5" stroke-linecap="round" stroke-linejoin="round" d="m10.62 8.37 -0.88 -0.88" stroke-width="1"></path><path id="Vector_11" stroke="#4147d5" stroke-linecap="round" stroke-linejoin="round" d="m7.26 5.01 -0.88 -0.88" stroke-width="1"></path><path id="Vector_12" stroke="#4147d5" stroke-linecap="round" stroke-linejoin="round" d="M3 4.5V8" stroke-width="1"></path><path id="Vector_13" stroke="#4147d5" stroke-linecap="round" stroke-linejoin="round" d="M2 12v1.5" stroke-width="1"></path><path id="Vector_14" stroke="#4147d5" stroke-linecap="round" stroke-linejoin="round" d="M11.5 12v1.5" stroke-width="1"></path></g></svg>